<svg width="130" height="44" viewBox="0 0 130 44" fill="none" xmlns="http://www.w3.org/2000/svg">
<path d="M119.692 0.000143H10.8616C10.4649 0.000143 10.073 0.000143 9.67734 0.00234299C9.34615 0.00454299 9.01759 0.010934 8.68321 0.0163129C7.95679 0.0250049 7.23207 0.0899866 6.51536 0.210693C5.79966 0.334028 5.10637 0.566548 4.45896 0.900391C3.81233 1.23706 3.2215 1.67452 2.70788 2.19691C2.19156 2.71783 1.76117 3.31995 1.43326 3.98011C1.10444 4.63895 0.87644 5.34496 0.757126 6.07375C0.636678 6.80162 0.571863 7.53789 0.563265 8.27594C0.553225 8.6132 0.552165 8.95158 0.546875 9.28889V34.7145C0.552165 35.056 0.553225 35.3869 0.563265 35.7286C0.571866 36.4666 0.63668 37.2028 0.757126 37.9307C0.87611 38.6599 1.10413 39.3663 1.43326 40.0254C1.76102 40.6834 2.19147 41.2831 2.70788 41.8011C3.21955 42.3258 3.81077 42.7636 4.45896 43.0977C5.10637 43.4324 5.79958 43.6663 6.51536 43.7916C7.23219 43.9113 7.95683 43.9763 8.68321 43.986C9.01759 43.9935 9.34615 43.9978 9.67734 43.9978C10.073 44 10.465 44 10.8616 44H119.692C120.081 44 120.476 44 120.865 43.9978C121.195 43.9978 121.533 43.9935 121.862 43.986C122.587 43.9768 123.311 43.9118 124.026 43.7916C124.744 43.6654 125.44 43.4316 126.09 43.0977C126.738 42.7634 127.329 42.3256 127.84 41.8011C128.355 41.2811 128.786 40.6818 129.118 40.0254C129.445 39.3658 129.671 38.6595 129.788 37.9307C129.909 37.2027 129.976 36.4667 129.989 35.7286C129.993 35.3869 129.993 35.056 129.993 34.7145C130.001 34.3149 130.001 33.9174 130.001 33.5113V10.4899C130.001 10.087 130.001 9.68742 129.993 9.28889C129.993 8.95158 129.993 8.6132 129.989 8.2759C129.976 7.53778 129.909 6.80168 129.788 6.07371C129.67 5.34534 129.444 4.63938 129.118 3.98006C128.45 2.65685 127.391 1.57977 126.09 0.900292C125.44 0.567265 124.744 0.334806 124.026 0.210594C123.311 0.0893558 122.587 0.0243515 121.862 0.0161589C121.533 0.010791 121.195 0.00434499 120.865 0.00219999C120.476 0 120.081 0 119.692 0V0.000143Z" fill="#A6A6A6"/>
<path d="M9.68741 43.0373C9.3578 43.0373 9.03615 43.033 8.70913 43.0255C8.03168 43.0165 7.35581 42.9566 6.68707 42.8461C6.0635 42.7369 5.45943 42.5338 4.89478 42.2434C4.33531 41.9555 3.82503 41.5779 3.38348 41.1252C2.93555 40.6778 2.56262 40.1589 2.27948 39.589C1.99322 39.0155 1.79511 38.4007 1.69205 37.7661C1.58076 37.0842 1.52055 36.3947 1.51193 35.7036C1.50507 35.4716 1.49609 34.6992 1.49609 34.6992V9.28865C1.49609 9.28865 1.50566 8.5281 1.51199 8.30466C1.52024 7.61461 1.5801 6.9262 1.69106 6.24539C1.79431 5.60906 1.99257 4.99251 2.27898 4.41708C2.56108 3.84763 2.93194 3.32834 3.37718 2.87934C3.82191 2.42608 4.33383 2.04656 4.89425 1.75463C5.4576 1.4652 6.06053 1.26351 6.68284 1.1563C7.35378 1.04472 8.03199 0.984398 8.71179 0.975833L9.68794 0.962402H120.865L121.852 0.976372C122.526 0.984511 123.198 1.0443 123.863 1.15522C124.491 1.26377 125.101 1.46688 125.67 1.75785C126.793 2.34618 127.707 3.27697 128.283 4.41977C128.565 4.99123 128.76 5.60275 128.862 6.23358C128.974 6.91997 129.037 7.61379 129.05 8.3095C129.053 8.62102 129.053 8.95564 129.053 9.28865C129.062 9.70115 129.062 10.0938 129.062 10.4896V33.5111C129.062 33.9107 129.062 34.3007 129.053 34.6938C129.053 35.0515 129.053 35.3792 129.049 35.7165C129.036 36.3998 128.975 37.0812 128.864 37.7553C128.763 38.3945 128.566 39.014 128.28 39.5923C127.995 40.156 127.624 40.6704 127.181 41.1166C126.739 41.5717 126.228 41.9515 125.667 42.2413C125.099 42.5339 124.491 42.7378 123.863 42.8461C123.194 42.9571 122.518 43.0171 121.841 43.0255C121.524 43.033 121.192 43.0373 120.87 43.0373L119.697 43.0395L9.68741 43.0373Z" fill="black"/>
<path d="M27.3537 22.3261C27.3653 21.408 27.6051 20.5078 28.0509 19.7093C28.4966 18.9107 29.1338 18.2398 29.903 17.7589C29.4143 17.0492 28.7696 16.4652 28.0201 16.0532C27.2706 15.6412 26.4369 15.4125 25.5853 15.3854C23.7687 15.1916 22.0076 16.4908 21.0818 16.4908C20.1382 16.4908 18.7129 15.4047 17.1781 15.4368C16.1854 15.4694 15.2178 15.763 14.3698 16.2888C13.5218 16.8147 12.8222 17.5549 12.3392 18.4375C10.247 22.1207 11.8076 27.5338 13.8118 30.5111C14.8145 31.969 15.9864 33.5975 17.5199 33.5397C19.0204 33.4764 19.5808 32.5668 21.3921 32.5668C23.1866 32.5668 23.7124 33.5397 25.2769 33.503C26.8871 33.4764 27.9015 32.0386 28.8691 30.567C29.5896 29.5282 30.144 28.3801 30.5117 27.1652C29.5763 26.7629 28.778 26.0895 28.2164 25.229C27.6548 24.3685 27.3548 23.3589 27.3537 22.3261Z" fill="white"/>
<path d="M24.3969 13.4302C25.2749 12.3586 25.7074 10.9812 25.6026 9.59058C24.2614 9.73382 23.0224 10.3856 22.1326 11.4161C21.6976 11.9196 21.3644 12.5052 21.1521 13.1397C20.9398 13.7741 20.8526 14.4449 20.8954 15.1137C21.5662 15.1207 22.2299 14.9728 22.8365 14.6812C23.443 14.3896 23.9765 13.9619 24.3969 13.4302Z" fill="white"/>
<path d="M46.3123 29.8422H41.1916L39.9619 33.5343H37.793L42.6432 19.8745H44.8966L49.7468 33.5343H47.5409L46.3123 29.8422ZM41.7219 28.1385H45.7809L43.78 22.1465H43.724L41.7219 28.1385Z" fill="white"/>
<path d="M60.2202 28.5527C60.2202 31.6475 58.5912 33.6358 56.1328 33.6358C55.51 33.669 54.8907 33.5231 54.3457 33.215C53.8007 32.9068 53.352 32.4488 53.0511 31.8934H53.0046V36.8262H50.9941V23.5726H52.9402V25.229H52.9772C53.2919 24.6763 53.7481 24.2207 54.2973 23.9107C54.8465 23.6007 55.468 23.4478 56.0958 23.4684C58.5816 23.4684 60.2202 25.4664 60.2202 28.5527ZM58.1538 28.5527C58.1538 26.5364 57.129 25.2108 55.5655 25.2108C54.0294 25.2108 52.9962 26.5643 52.9962 28.5527C52.9962 30.5593 54.0294 31.9031 55.5655 31.9031C57.129 31.9031 58.1538 30.5872 58.1538 28.5527Z" fill="white"/>
<path d="M70.9976 28.5526C70.9976 31.6475 69.3685 33.6358 66.9101 33.6358C66.2874 33.669 65.6681 33.5231 65.123 33.2149C64.578 32.9068 64.1294 32.4488 63.8284 31.8934H63.7819V36.8262H61.7715V23.5726H63.7175V25.229H63.7545C64.0692 24.6763 64.5254 24.2207 65.0746 23.9107C65.6238 23.6007 66.2453 23.4478 66.8731 23.4684C69.359 23.4684 70.9976 25.4664 70.9976 28.5526ZM68.9311 28.5526C68.9311 26.5364 67.9064 25.2108 66.3428 25.2108C64.8067 25.2108 63.7735 26.5643 63.7735 28.5526C63.7735 30.5593 64.8067 31.9031 66.3428 31.9031C67.9064 31.9031 68.9312 30.5872 68.9312 28.5526H68.9311Z" fill="white"/>
<path d="M78.1264 29.7327C78.2753 31.0873 79.5695 31.9767 81.338 31.9767C83.0326 31.9767 84.2517 31.0872 84.2517 29.8658C84.2517 28.8056 83.5164 28.1707 81.7754 27.7357L80.0344 27.3092C77.5675 26.7034 76.4223 25.5303 76.4223 23.6268C76.4223 21.27 78.4423 19.6511 81.3105 19.6511C84.1492 19.6511 86.0953 21.27 86.1608 23.6268H84.1313C84.0098 22.2636 82.9016 21.4408 81.282 21.4408C79.6624 21.4408 78.5542 22.2733 78.5542 23.485C78.5542 24.4507 79.2621 25.019 80.9936 25.454L82.4737 25.8235C85.23 26.4863 86.3752 27.6121 86.3752 29.6101C86.3752 32.1657 84.3732 33.7663 81.189 33.7663C78.2098 33.7663 76.1983 32.2033 76.0684 29.7326L78.1264 29.7327Z" fill="white"/>
<path d="M90.7116 21.2266V23.5834H92.5742V25.2022H90.7116V30.6925C90.7116 31.5455 91.0846 31.9429 91.9033 31.9429C92.1244 31.939 92.3452 31.9232 92.5647 31.8956V33.5048C92.1966 33.5747 91.8224 33.6064 91.448 33.5993C89.465 33.5993 88.6917 32.842 88.6917 30.9106V25.2022H87.2676V23.5834H88.6917V21.2266H90.7116Z" fill="white"/>
<path d="M93.6562 28.5578C93.6562 25.4244 95.4712 23.4553 98.3015 23.4553C101.141 23.4553 102.948 25.4243 102.948 28.5578C102.948 31.6999 101.151 33.6604 98.3015 33.6604C95.4532 33.6604 93.6562 31.6999 93.6562 28.5578ZM100.899 28.5578C100.899 26.4083 99.9306 25.1397 98.3015 25.1397C96.6724 25.1397 95.7047 26.418 95.7047 28.5578C95.7047 30.7159 96.6724 31.9749 98.3015 31.9749C99.9306 31.9749 100.899 30.7159 100.899 28.5578H100.899Z" fill="white"/>
<path d="M104.605 23.5725H106.523V25.2676H106.569C106.699 24.7382 107.004 24.2703 107.433 23.9426C107.862 23.615 108.389 23.4475 108.925 23.4683C109.157 23.4675 109.388 23.493 109.614 23.5446V25.4567C109.322 25.3658 109.017 25.3241 108.711 25.3331C108.419 25.3211 108.128 25.3734 107.857 25.4866C107.587 25.5998 107.344 25.7711 107.145 25.9888C106.946 26.2065 106.796 26.4654 106.704 26.7477C106.613 27.03 106.583 27.3291 106.616 27.6244V33.5315H104.605L104.605 23.5725Z" fill="white"/>
<path d="M118.884 30.6117C118.614 32.4196 116.882 33.6604 114.667 33.6604C111.817 33.6604 110.049 31.7193 110.049 28.6051C110.049 25.4813 111.827 23.4553 114.582 23.4553C117.292 23.4553 118.996 25.3481 118.996 28.3677V29.0681H112.078V29.1916C112.046 29.5581 112.091 29.9274 112.211 30.2748C112.33 30.6222 112.52 30.9399 112.77 31.2067C113.019 31.4735 113.321 31.6833 113.656 31.8223C113.991 31.9612 114.351 32.026 114.713 32.0125C115.188 32.0578 115.665 31.9459 116.073 31.6935C116.48 31.4411 116.797 31.0617 116.975 30.6117L118.884 30.6117ZM112.088 27.6394H116.984C117.003 27.3098 116.953 26.98 116.84 26.6707C116.727 26.3614 116.552 26.0792 116.326 25.8419C116.101 25.6045 115.829 25.4171 115.529 25.2915C115.229 25.1659 114.907 25.1047 114.582 25.1118C114.255 25.1098 113.93 25.1737 113.627 25.3C113.324 25.4262 113.049 25.6121 112.817 25.8471C112.585 26.0821 112.401 26.3615 112.276 26.6691C112.151 26.9767 112.087 27.3065 112.088 27.6394V27.6394Z" fill="white"/>
<path d="M41.4625 9.60364C41.884 9.57288 42.3069 9.63763 42.7008 9.79321C43.0947 9.94878 43.4497 10.1913 43.7403 10.5033C44.0309 10.8153 44.2497 11.1889 44.381 11.5973C44.5124 12.0057 44.5529 12.4387 44.4998 12.865C44.4998 14.9618 43.3852 16.1671 41.4625 16.1671H39.1309V9.60364H41.4625ZM40.1334 15.2389H41.3505C41.6517 15.2572 41.9531 15.207 42.2328 15.0919C42.5124 14.9769 42.7634 14.7998 42.9673 14.5737C43.1712 14.3476 43.323 14.0781 43.4115 13.7848C43.5001 13.4915 43.5232 13.1818 43.4792 12.8783C43.52 12.576 43.4946 12.2683 43.4046 11.9771C43.3147 11.686 43.1626 11.4187 42.9591 11.1944C42.7557 10.9701 42.506 10.7943 42.2278 10.6796C41.9497 10.565 41.6501 10.5143 41.3505 10.5312H40.1334V15.2389Z" fill="white"/>
<path d="M45.632 13.6904C45.6013 13.3649 45.638 13.0364 45.7395 12.7262C45.841 12.4159 46.0052 12.1306 46.2215 11.8886C46.4378 11.6467 46.7014 11.4533 46.9955 11.321C47.2896 11.1887 47.6076 11.1204 47.9292 11.1204C48.2508 11.1204 48.5689 11.1887 48.863 11.321C49.1571 11.4533 49.4207 11.6467 49.637 11.8886C49.8533 12.1306 50.0175 12.4159 50.119 12.7262C50.2205 13.0364 50.2571 13.3649 50.2265 13.6904C50.2577 14.0162 50.2215 14.3451 50.1203 14.6559C50.019 14.9666 49.855 15.2524 49.6386 15.4949C49.4222 15.7374 49.1584 15.9311 48.864 16.0637C48.5696 16.1963 48.2512 16.2648 47.9292 16.2648C47.6073 16.2648 47.2888 16.1963 46.9945 16.0637C46.7001 15.9311 46.4362 15.7374 46.2199 15.4949C46.0035 15.2524 45.8394 14.9666 45.7382 14.6559C45.6369 14.3451 45.6008 14.0162 45.632 13.6904ZM49.2377 13.6904C49.2377 12.6167 48.7633 11.9888 47.9308 11.9888C47.0952 11.9888 46.6251 12.6167 46.6251 13.6904C46.6251 14.7727 47.0952 15.3957 47.9308 15.3957C48.7633 15.3957 49.2377 14.7683 49.2377 13.6904H49.2377Z" fill="white"/>
<path d="M56.3313 16.171H55.334L54.3272 12.5229H54.2511L53.2485 16.171H52.2607L50.918 11.2178H51.8931L52.7657 14.9974H52.8376L53.8391 11.2178H54.7614L55.7629 14.9974H55.839L56.7074 11.2178H57.6687L56.3313 16.171Z" fill="white"/>
<path d="M58.8086 11.215H59.7341V12.0018H59.8059C59.9278 11.7192 60.1333 11.4823 60.3939 11.3241C60.6545 11.166 60.9571 11.0944 61.2596 11.1194C61.4966 11.1013 61.7346 11.1376 61.9559 11.2257C62.1773 11.3138 62.3763 11.4514 62.5382 11.6283C62.7001 11.8053 62.8209 12.017 62.8914 12.2478C62.9619 12.4786 62.9805 12.7226 62.9457 12.9617V16.1681H61.9843V13.2071C61.9843 12.4111 61.6441 12.0153 60.9331 12.0153C60.7722 12.0077 60.6116 12.0355 60.4622 12.0969C60.3129 12.1583 60.1783 12.2519 60.0679 12.3711C59.9574 12.4903 59.8736 12.6324 59.8221 12.7877C59.7707 12.9429 59.7529 13.1076 59.77 13.2705V16.1682H58.8086L58.8086 11.215Z" fill="white"/>
<path d="M64.4688 9.28125H65.4301V16.168H64.4688V9.28125Z" fill="white"/>
<path d="M66.7608 13.6905C66.7302 13.3649 66.7669 13.0365 66.8684 12.7262C66.97 12.4159 67.1342 12.1306 67.3505 11.8886C67.5668 11.6467 67.8305 11.4533 68.1246 11.321C68.4187 11.1887 68.7368 11.1204 69.0584 11.1204C69.38 11.1204 69.6981 11.1887 69.9922 11.321C70.2863 11.4533 70.5499 11.6467 70.7663 11.8886C70.9826 12.1306 71.1468 12.4159 71.2483 12.7262C71.3499 13.0365 71.3865 13.3649 71.3559 13.6905C71.3871 14.0163 71.3509 14.3452 71.2496 14.656C71.1483 14.9668 70.9842 15.2525 70.7678 15.495C70.5514 15.7374 70.2876 15.9312 69.9932 16.0638C69.6988 16.1963 69.3804 16.2648 69.0584 16.2648C68.7364 16.2648 68.418 16.1963 68.1236 16.0638C67.8292 15.9312 67.5653 15.7374 67.3489 15.495C67.1326 15.2525 66.9685 14.9668 66.8672 14.656C66.7659 14.3452 66.7297 14.0163 66.7608 13.6905ZM70.3665 13.6905C70.3665 12.6168 69.8922 11.9889 69.0597 11.9889C68.224 11.9889 67.7539 12.6168 67.7539 13.6905C67.7539 14.7727 68.2241 15.3958 69.0597 15.3958C69.8922 15.3958 70.3665 14.7684 70.3665 13.6905H70.3665Z" fill="white"/>
<path d="M72.3789 14.7684C72.3789 13.8768 73.0318 13.3628 74.1907 13.2897L75.5103 13.2124V12.7849C75.5103 12.2617 75.1701 11.9663 74.513 11.9663C73.9763 11.9663 73.6044 12.1666 73.4977 12.5168H72.567C72.6652 11.6661 73.4523 11.1204 74.5573 11.1204C75.7786 11.1204 76.4674 11.7386 76.4674 12.7849V16.1692H75.5419V15.4731H75.4659C75.3115 15.7228 75.0947 15.9263 74.8376 16.063C74.5806 16.1996 74.2924 16.2644 74.0027 16.2508C73.7982 16.2724 73.5915 16.2502 73.3959 16.1857C73.2004 16.1211 73.0203 16.0156 72.8673 15.8759C72.7143 15.7362 72.5918 15.5655 72.5077 15.3748C72.4236 15.184 72.3797 14.9774 72.3789 14.7684ZM75.5103 14.3451V13.931L74.3207 14.0084C73.6498 14.054 73.3456 14.2861 73.3456 14.7227C73.3456 15.1685 73.7259 15.4279 74.2489 15.4279C74.4021 15.4437 74.5569 15.428 74.704 15.3817C74.8512 15.3354 74.9876 15.2595 75.1053 15.1584C75.223 15.0574 75.3195 14.9334 75.3891 14.7936C75.4586 14.6539 75.4998 14.5014 75.5103 14.3451Z" fill="white"/>
<path d="M77.7305 13.6893C77.7305 12.1242 78.5218 11.1327 79.7525 11.1327C80.057 11.1184 80.3591 11.1926 80.6237 11.3464C80.8882 11.5003 81.1042 11.7276 81.2464 12.0017H81.3182V9.28125H82.2796V16.168H81.3584V15.3855H81.2823C81.1291 15.6577 80.9056 15.8821 80.6359 16.0345C80.3663 16.1868 80.0608 16.2612 79.7525 16.2497C78.5133 16.2497 77.7305 15.2582 77.7305 13.6893ZM78.7236 13.6893C78.7236 14.7399 79.2106 15.3721 80.0251 15.3721C80.8354 15.3721 81.3362 14.7308 81.3362 13.6936C81.3362 12.6613 80.8302 12.0108 80.0251 12.0108C79.2159 12.0108 78.7235 12.6473 78.7235 13.6893H78.7236Z" fill="white"/>
<path d="M86.2531 13.6904C86.2224 13.3649 86.259 13.0364 86.3606 12.7262C86.4621 12.4159 86.6263 12.1306 86.8426 11.8886C87.0589 11.6467 87.3225 11.4533 87.6166 11.321C87.9107 11.1887 88.2287 11.1204 88.5503 11.1204C88.8719 11.1204 89.19 11.1887 89.4841 11.321C89.7781 11.4533 90.0418 11.6467 90.2581 11.8886C90.4744 12.1306 90.6386 12.4159 90.7401 12.7262C90.8416 13.0364 90.8782 13.3649 90.8476 13.6904C90.8788 14.0162 90.8426 14.3451 90.7414 14.6559C90.6401 14.9666 90.476 15.2524 90.2597 15.4949C90.0433 15.7374 89.7795 15.9311 89.4851 16.0637C89.1907 16.1963 88.8723 16.2648 88.5503 16.2648C88.2284 16.2648 87.9099 16.1963 87.6156 16.0637C87.3212 15.9311 87.0573 15.7374 86.841 15.4949C86.6246 15.2524 86.4605 14.9666 86.3593 14.6559C86.258 14.3451 86.2218 14.0162 86.2531 13.6904ZM89.8587 13.6904C89.8587 12.6167 89.3844 11.9888 88.5519 11.9888C87.7163 11.9888 87.2462 12.6167 87.2462 13.6904C87.2462 14.7727 87.7163 15.3957 88.5519 15.3957C89.3844 15.3957 89.8587 14.7683 89.8587 13.6904Z" fill="white"/>
<path d="M92.1406 11.215H93.0661V12.0018H93.1379C93.2598 11.7192 93.4653 11.4823 93.7259 11.3241C93.9865 11.166 94.2891 11.0944 94.5916 11.1194C94.8286 11.1013 95.0666 11.1376 95.288 11.2257C95.5093 11.3138 95.7083 11.4514 95.8703 11.6283C96.0322 11.8053 96.1529 12.017 96.2234 12.2478C96.294 12.4786 96.3125 12.7226 96.2777 12.9617V16.1681H95.3164V13.2071C95.3164 12.4111 94.9762 12.0153 94.2652 12.0153C94.1042 12.0077 93.9436 12.0355 93.7942 12.0969C93.6449 12.1583 93.5104 12.2519 93.3999 12.3711C93.2894 12.4903 93.2056 12.6324 93.1542 12.7877C93.1028 12.9429 93.085 13.1076 93.102 13.2705V16.1682H92.1406V11.215Z" fill="white"/>
<path d="M101.71 9.98022V11.236H102.766V12.0594H101.71V14.6063C101.71 15.1252 101.921 15.3524 102.399 15.3524C102.522 15.352 102.644 15.3444 102.766 15.3298V16.1441C102.593 16.1755 102.418 16.1922 102.243 16.194C101.174 16.194 100.748 15.8116 100.748 14.8566V12.0593H99.9746V11.2359H100.748V9.98022H101.71Z" fill="white"/>
<path d="M104.078 9.28125H105.031V12.0108H105.107C105.235 11.7256 105.446 11.4873 105.712 11.3286C105.978 11.1698 106.285 11.0982 106.592 11.1235C106.828 11.1105 107.064 11.1505 107.283 11.2408C107.502 11.331 107.698 11.4692 107.858 11.6456C108.019 11.822 108.139 12.0321 108.21 12.2611C108.281 12.49 108.302 12.7321 108.27 12.9701V16.1681H107.308V13.2113C107.308 12.4201 106.945 12.0194 106.266 12.0194C106.101 12.0056 105.935 12.0287 105.779 12.0871C105.624 12.1455 105.482 12.2377 105.366 12.3573C105.249 12.4769 105.159 12.621 105.103 12.7796C105.046 12.9381 105.025 13.1073 105.04 13.2752V16.168H104.078L104.078 9.28125Z" fill="white"/>
<path d="M113.876 14.8319C113.745 15.2845 113.462 15.6761 113.076 15.9381C112.691 16.2001 112.226 16.3157 111.765 16.2649C111.444 16.2735 111.125 16.211 110.831 16.0817C110.536 15.9524 110.272 15.7594 110.058 15.5162C109.844 15.2729 109.684 14.9852 109.591 14.673C109.497 14.3608 109.471 14.0316 109.515 13.7082C109.472 13.3839 109.498 13.0539 109.592 12.7408C109.686 12.4277 109.844 12.1386 110.057 11.8932C110.27 11.6479 110.533 11.4519 110.826 11.3185C111.12 11.1852 111.439 11.1177 111.761 11.1204C113.116 11.1204 113.934 12.062 113.934 13.6174V13.9585H110.494V14.0133C110.479 14.1951 110.502 14.378 110.56 14.5505C110.619 14.7229 110.712 14.881 110.834 15.0146C110.956 15.1482 111.105 15.2543 111.27 15.3263C111.434 15.3982 111.612 15.4343 111.792 15.4323C112.022 15.4604 112.255 15.4183 112.461 15.3113C112.667 15.2044 112.838 15.0375 112.951 14.8318L113.876 14.8319ZM110.494 13.2356H112.955C112.967 13.0693 112.945 12.9024 112.889 12.7454C112.834 12.5884 112.748 12.4448 112.635 12.324C112.522 12.2032 112.385 12.1077 112.234 12.0437C112.082 11.9797 111.92 11.9486 111.756 11.9524C111.589 11.9503 111.424 11.982 111.27 12.0458C111.116 12.1095 110.976 12.204 110.859 12.3236C110.741 12.4431 110.648 12.5854 110.586 12.7421C110.523 12.8987 110.492 13.0665 110.494 13.2356H110.494Z" fill="white"/>
</svg>
