<svg width="147" height="44" viewBox="0 0 147 44" fill="none" xmlns="http://www.w3.org/2000/svg">
<path d="M141.468 44H5.44107C2.39407 44 0 41.58 0 38.5V5.5C0 2.42 2.39407 0 5.44107 0H141.468C144.515 0 146.909 2.42 146.909 5.5V38.5C146.909 41.58 144.515 44 141.468 44Z" fill="black"/>
<path d="M141.468 0.88C143.971 0.88 146.038 2.97 146.038 5.5V38.5C146.038 41.03 143.971 43.12 141.468 43.12H5.44107C2.93818 43.12 0.870572 41.03 0.870572 38.5V5.5C0.870572 2.97 2.93818 0.88 5.44107 0.88H141.468ZM141.468 0H5.44107C2.39407 0 0 2.53 0 5.5V38.5C0 41.58 2.39407 44 5.44107 44H141.468C144.515 44 146.909 41.58 146.909 38.5V5.5C146.909 2.53 144.515 0 141.468 0Z" fill="#A6A6A6"/>
<path d="M51.5767 11.2211C51.5767 12.1011 51.359 12.8711 50.8149 13.4211C50.1619 14.0811 49.4001 14.4111 48.4206 14.4111C47.4411 14.4111 46.6793 14.0811 46.0263 13.4211C45.3734 12.7611 45.0469 11.9911 45.0469 11.0011C45.0469 10.0111 45.3734 9.24106 46.0263 8.58106C46.6793 7.92106 47.4411 7.59106 48.4206 7.59106C48.8559 7.59106 49.2913 7.70106 49.7266 7.92106C50.1619 8.14106 50.4884 8.36106 50.7061 8.69106L50.1619 9.24106C49.7266 8.69106 49.1824 8.47106 48.4206 8.47106C47.7676 8.47106 47.1147 8.69106 46.6793 9.24106C46.1352 9.68106 45.9175 10.3411 45.9175 11.1111C45.9175 11.8811 46.1352 12.5411 46.6793 12.9811C47.2235 13.4211 47.7676 13.7511 48.4206 13.7511C49.1824 13.7511 49.7266 13.5311 50.2707 12.9811C50.5972 12.6511 50.8149 12.2111 50.8149 11.6611H48.4206V10.7811H51.5767C51.5767 10.8911 51.5767 11.1111 51.5767 11.2211Z" fill="white" stroke="white" stroke-width="0.2" stroke-miterlimit="10"/>
<path d="M56.5864 8.46995H53.648V10.56H56.3687V11.33H53.648V13.42H56.5864V14.3H52.7773V7.69995H56.5864V8.46995Z" fill="white" stroke="white" stroke-width="0.2" stroke-miterlimit="10"/>
<path d="M60.1739 14.3H59.3032V8.46995H57.4531V7.69995H62.024V8.46995H60.1739V14.3Z" fill="white" stroke="white" stroke-width="0.2" stroke-miterlimit="10"/>
<path d="M65.1855 14.3V7.69995H66.0566V14.3H65.1855Z" fill="white" stroke="white" stroke-width="0.2" stroke-miterlimit="10"/>
<path d="M69.7501 14.3H68.8794V8.46995H67.0293V7.69995H71.4913V8.46995H69.6412V14.3H69.7501Z" fill="white" stroke="white" stroke-width="0.2" stroke-miterlimit="10"/>
<path d="M80.0864 13.4211C79.4334 14.0811 78.6716 14.4111 77.6921 14.4111C76.7126 14.4111 75.9508 14.0811 75.2978 13.4211C74.6448 12.7611 74.3184 11.9911 74.3184 11.0011C74.3184 10.0111 74.6448 9.24106 75.2978 8.58106C75.9508 7.92106 76.7126 7.59106 77.6921 7.59106C78.6716 7.59106 79.4334 7.92106 80.0864 8.58106C80.7394 9.24106 81.0658 10.0111 81.0658 11.0011C81.0658 11.9911 80.7394 12.7611 80.0864 13.4211ZM75.9508 12.8711C76.3861 13.3111 77.0391 13.6411 77.6921 13.6411C78.3451 13.6411 78.9981 13.4211 79.4334 12.8711C79.8687 12.4311 80.1952 11.7711 80.1952 11.0011C80.1952 10.2311 79.9775 9.57106 79.4334 9.13106C78.9981 8.69106 78.3451 8.36106 77.6921 8.36106C77.0391 8.36106 76.3861 8.58106 75.9508 9.13106C75.5155 9.57106 75.189 10.2311 75.189 11.0011C75.189 11.7711 75.4067 12.4311 75.9508 12.8711Z" fill="white" stroke="white" stroke-width="0.2" stroke-miterlimit="10"/>
<path d="M82.2695 14.3V7.69995H83.249L86.4051 12.87V11.55V7.69995H87.2757V14.3H86.4051L83.0313 8.90995V10.23V14.3H82.2695Z" fill="white" stroke="white" stroke-width="0.2" stroke-miterlimit="10"/>
<path d="M74.1162 23.9732C71.5045 23.9732 69.4369 25.9532 69.4369 28.7032C69.4369 31.3432 71.5045 33.4332 74.1162 33.4332C76.7279 33.4332 78.7955 31.4532 78.7955 28.7032C78.7955 25.8432 76.7279 23.9732 74.1162 23.9732ZM74.1162 31.4532C72.7015 31.4532 71.5045 30.2432 71.5045 28.5932C71.5045 26.9432 72.7015 25.7332 74.1162 25.7332C75.5309 25.7332 76.7279 26.8332 76.7279 28.5932C76.7279 30.2432 75.5309 31.4532 74.1162 31.4532ZM63.9958 23.9732C61.3841 23.9732 59.3165 25.9532 59.3165 28.7032C59.3165 31.3432 61.3841 33.4332 63.9958 33.4332C66.6075 33.4332 68.6751 31.4532 68.6751 28.7032C68.6751 25.8432 66.6075 23.9732 63.9958 23.9732ZM63.9958 31.4532C62.5811 31.4532 61.3841 30.2432 61.3841 28.5932C61.3841 26.9432 62.5811 25.7332 63.9958 25.7332C65.4105 25.7332 66.6075 26.8332 66.6075 28.5932C66.6075 30.2432 65.4105 31.4532 63.9958 31.4532ZM51.9166 25.4032V27.3832H56.5959C56.4871 28.4832 56.0518 29.3632 55.5077 29.9132C54.8548 30.5732 53.7666 31.3432 51.9166 31.3432C48.9784 31.3432 46.802 29.0332 46.802 26.0632C46.802 23.0932 49.0872 20.7832 51.9166 20.7832C53.4401 20.7832 54.6371 21.4432 55.5077 22.2132L56.9224 20.7832C55.7253 19.6832 54.2018 18.8032 52.0254 18.8032C48.1078 18.8032 44.7344 22.1032 44.7344 26.0632C44.7344 30.0232 48.1078 33.3232 52.0254 33.3232C54.2018 33.3232 55.7253 32.6632 57.0312 31.2332C58.3371 29.9132 58.7724 28.0432 58.7724 26.6132C58.7724 26.1732 58.7724 25.7332 58.6635 25.4032H51.9166ZM101.322 26.9432C100.886 25.8432 99.7981 23.9732 97.404 23.9732C95.0099 23.9732 93.0511 25.8432 93.0511 28.7032C93.0511 31.3432 95.0099 33.4332 97.6216 33.4332C99.6892 33.4332 100.995 32.1132 101.43 31.3432L99.9069 30.2432C99.3628 31.0132 98.7098 31.5632 97.6216 31.5632C96.5334 31.5632 95.8805 31.1232 95.3364 30.1332L101.539 27.4932L101.322 26.9432ZM95.0099 28.4832C95.0099 26.7232 96.4246 25.7332 97.404 25.7332C98.1657 25.7332 98.9275 26.1732 99.1451 26.7232L95.0099 28.4832ZM89.8953 32.9932H91.9629V19.2432H89.8953V32.9932ZM86.6307 24.9632C86.0865 24.4132 85.216 23.8632 84.1278 23.8632C81.8425 23.8632 79.6661 25.9532 79.6661 28.5932C79.6661 31.2332 81.7337 33.2132 84.1278 33.2132C85.216 33.2132 86.0865 32.6632 86.5218 32.1132H86.6307V32.7732C86.6307 34.5332 85.6513 35.5232 84.1278 35.5232C82.9307 35.5232 82.0601 34.6432 81.8425 33.8732L80.1014 34.6432C80.6455 35.8532 81.9513 37.3932 84.2366 37.3932C86.6307 37.3932 88.5894 35.9632 88.5894 32.5532V24.1932H86.6307V24.9632ZM84.2366 31.4532C82.8219 31.4532 81.6249 30.2432 81.6249 28.5932C81.6249 26.9432 82.8219 25.7332 84.2366 25.7332C85.6513 25.7332 86.7395 26.9432 86.7395 28.5932C86.7395 30.2432 85.6513 31.4532 84.2366 31.4532ZM110.789 19.2432H105.892V32.9932H107.96V27.8232H110.789C113.074 27.8232 115.251 26.1732 115.251 23.5332C115.251 20.8932 113.074 19.2432 110.789 19.2432ZM110.898 25.8432H107.96V21.1132H110.898C112.421 21.1132 113.292 22.4332 113.292 23.4232C113.183 24.6332 112.313 25.8432 110.898 25.8432ZM123.412 23.8632C121.889 23.8632 120.365 24.5232 119.821 25.9532L121.671 26.7232C122.106 25.9532 122.759 25.7332 123.521 25.7332C124.609 25.7332 125.589 26.3932 125.698 27.4932V27.6032C125.371 27.3832 124.501 27.0532 123.63 27.0532C121.671 27.0532 119.712 28.1532 119.712 30.1332C119.712 32.0032 121.345 33.2132 123.086 33.2132C124.501 33.2132 125.153 32.5532 125.698 31.8932H125.806V32.9932H127.765V27.7132C127.548 25.2932 125.698 23.8632 123.412 23.8632ZM123.195 31.4532C122.542 31.4532 121.562 31.1232 121.562 30.2432C121.562 29.1432 122.759 28.8132 123.739 28.8132C124.609 28.8132 125.045 29.0332 125.589 29.2532C125.371 30.5732 124.283 31.4532 123.195 31.4532ZM134.621 24.1932L132.336 30.1332H132.227L129.833 24.1932H127.656L131.247 32.5532L129.18 37.1732H131.247L136.797 24.1932H134.621ZM116.339 32.9932H118.407V19.2432H116.339V32.9932Z" fill="white"/>
<path d="M11.3181 8.25C10.9916 8.58 10.8828 9.13 10.8828 9.79V34.1C10.8828 34.76 11.1005 35.31 11.4269 35.64L11.5357 35.75L25.0296 22.11V22V21.89L11.3181 8.25Z" fill="url(#paint0_linear_3635_2687)"/>
<path d="M29.3742 26.7323L24.9121 22.2223V22.0023V21.8923L29.3742 17.3823L29.483 17.4923L34.8157 20.5723C36.3393 21.4523 36.3393 22.8823 34.8157 23.7623L29.3742 26.7323Z" fill="url(#paint1_linear_3635_2687)"/>
<path d="M29.4857 26.62L24.9152 22L11.3125 35.75C11.8566 36.3 12.6184 36.3 13.5978 35.86L29.4857 26.62Z" fill="url(#paint2_linear_3635_2687)"/>
<path d="M29.4857 17.3808L13.5978 8.25076C12.6184 7.70076 11.8566 7.81076 11.3125 8.36076L24.9152 22.0008L29.4857 17.3808Z" fill="url(#paint3_linear_3635_2687)"/>
<path opacity="0.2" d="M29.3886 26.5088L13.6095 35.5288C12.7389 36.0788 11.9771 35.9688 11.433 35.5288L11.3242 35.6388L11.433 35.7488C11.9771 36.1888 12.7389 36.2988 13.6095 35.7488L29.3886 26.5088Z" fill="black"/>
<path opacity="0.12" d="M11.3192 35.5368C10.9919 35.2068 10.8828 34.6568 10.8828 33.9968V34.1068C10.8828 34.7668 11.101 35.3168 11.4283 35.6468V35.5368H11.3192Z" fill="black"/>
<path opacity="0.12" d="M34.8185 23.43L29.377 26.51L29.4858 26.62L34.8185 23.54C35.5803 23.1 35.9068 22.55 35.9068 22C35.9068 22.55 35.4715 22.99 34.8185 23.43Z" fill="black"/>
<path opacity="0.25" d="M13.6033 8.3643L34.8235 20.5743C35.4765 21.0143 35.9118 21.4543 35.9118 22.0043C35.9118 21.4543 35.5853 20.9043 34.8235 20.4643L13.6033 8.2543C12.0798 7.3743 10.8828 8.0343 10.8828 9.7943V9.9043C10.8828 8.2543 12.0798 7.4843 13.6033 8.3643Z" fill="white"/>
<defs>
<linearGradient id="paint0_linear_3635_2687" x1="23.7233" y1="9.58078" x2="5.26374" y2="27.8426" gradientUnits="userSpaceOnUse">
<stop stop-color="#00A0FF"/>
<stop offset="0.00657445" stop-color="#00A1FF"/>
<stop offset="0.2601" stop-color="#00BEFF"/>
<stop offset="0.5122" stop-color="#00D2FF"/>
<stop offset="0.7604" stop-color="#00DFFF"/>
<stop offset="1" stop-color="#00E3FF"/>
</linearGradient>
<linearGradient id="paint1_linear_3635_2687" x1="36.812" y1="22.004" x2="10.4784" y2="22.004" gradientUnits="userSpaceOnUse">
<stop stop-color="#FFE000"/>
<stop offset="0.4087" stop-color="#FFBD00"/>
<stop offset="0.7754" stop-color="#FFA500"/>
<stop offset="1" stop-color="#FF9C00"/>
</linearGradient>
<linearGradient id="paint2_linear_3635_2687" x1="27.0121" y1="24.5258" x2="1.9794" y2="49.2903" gradientUnits="userSpaceOnUse">
<stop stop-color="#FF3A44"/>
<stop offset="1" stop-color="#C31162"/>
</linearGradient>
<linearGradient id="paint3_linear_3635_2687" x1="7.93599" y1="0.194688" x2="19.1142" y2="11.253" gradientUnits="userSpaceOnUse">
<stop stop-color="#32A071"/>
<stop offset="0.0685" stop-color="#2DA771"/>
<stop offset="0.4762" stop-color="#15CF74"/>
<stop offset="0.8009" stop-color="#06E775"/>
<stop offset="1" stop-color="#00F076"/>
</linearGradient>
</defs>
</svg>
